<?xml version="1.0" encoding="UTF-8" standalone="no"?>
<svg
   width="119.20811mm"
   height="127.907mm"
   viewBox="0 0 1407.9683 1510.7149"
   version="1.2"
   id="svg1383"
   sodipodi:docname="Drawing 2 (4).svg"
   xmlns:inkscape="http://www.inkscape.org/namespaces/inkscape"
   xmlns:sodipodi="http://sodipodi.sourceforge.net/DTD/sodipodi-0.dtd"
   xmlns="http://www.w3.org/2000/svg"
   xmlns:svg="http://www.w3.org/2000/svg">
  <sodipodi:namedview
     id="namedview1385"
     pagecolor="#ffffff"
     bordercolor="#000000"
     borderopacity="0.25"
     inkscape:showpageshadow="2"
     inkscape:pageopacity="0.0"
     inkscape:pagecheckerboard="0"
     inkscape:deskcolor="#d1d1d1"
     inkscape:document-units="mm"
     showgrid="false" />
  <defs
     id="defs997" />
  <g
     fill="none"
     stroke="#000000"
     stroke-width="1"
     fill-rule="evenodd"
     stroke-linecap="square"
     stroke-linejoin="bevel"
     id="g1381"
     transform="translate(-907.76255,-747.52501)">
    <g
       fill="#000000"
       fill-opacity="1"
       stroke="#000000"
       stroke-opacity="1"
       stroke-width="5"
       stroke-linecap="round"
       stroke-linejoin="bevel"
       font-family="Arial"
       font-size="12px"
       font-weight="400"
       font-style="normal"
       id="g1231">
      <polyline
         fill="none"
         vector-effect="none"
         points="2063.46,1753.83 2063.62,1751.63 2064.11,1749.48 2064.92,1747.43 2066.02,1745.52 2067.4,1743.79 2069.02,1742.29 2070.84,1741.05 2072.83,1740.09 2074.94,1739.44 2077.12,1739.11 2079.32,1739.11 2081.51,1739.44 2083.61,1740.09 2085.6,1741.05 2087.42,1742.29 2089.04,1743.79 2090.42,1745.52 2091.52,1747.43 2092.33,1749.48 2092.82,1751.63 2092.98,1753.83 2092.82,1756.04 2092.33,1758.19 2091.52,1760.24 2090.42,1762.15 2089.04,1763.88 2087.42,1765.38 2085.6,1766.62 2083.61,1767.58 2081.51,1768.23 2079.32,1768.56 2077.12,1768.56 2074.94,1768.23 2072.83,1767.58 2070.84,1766.62 2069.02,1765.38 2067.4,1763.88 2066.02,1762.15 2064.92,1760.24 2064.11,1758.19 2063.62,1756.04 2063.46,1753.83 "
         id="polyline1119" />
      <polyline
         fill="none"
         vector-effect="none"
         points="2180.37,2105.76 2180.54,2103.56 2181.03,2101.41 2181.83,2099.35 2182.94,2097.44 2184.31,2095.72 2185.93,2094.22 2187.75,2092.97 2189.74,2092.02 2191.85,2091.37 2194.03,2091.04 2196.24,2091.04 2198.42,2091.37 2200.53,2092.02 2202.52,2092.97 2204.34,2094.22 2205.96,2095.72 2207.33,2097.44 2208.43,2099.35 2209.24,2101.41 2209.73,2103.56 2209.9,2105.76 2209.73,2107.96 2209.24,2110.11 2208.43,2112.16 2207.33,2114.07 2205.96,2115.8 2204.34,2117.3 2202.52,2118.54 2200.53,2119.5 2198.42,2120.15 2196.24,2120.48 2194.03,2120.48 2191.85,2120.15 2189.74,2119.5 2187.75,2118.54 2185.93,2117.3 2184.31,2115.8 2182.94,2114.07 2181.83,2112.16 2181.03,2110.11 2180.54,2107.96 2180.37,2105.76 "
         id="polyline1121" />
      <polyline
         fill="none"
         vector-effect="none"
         points="2180.37,2220.31 2180.54,2218.11 2181.03,2215.96 2181.83,2213.91 2182.94,2212 2184.31,2210.27 2185.93,2208.77 2187.75,2207.53 2189.74,2206.57 2191.85,2205.92 2194.03,2205.59 2196.24,2205.59 2198.42,2205.92 2200.53,2206.57 2202.52,2207.53 2204.34,2208.77 2205.96,2210.27 2207.33,2212 2208.43,2213.91 2209.24,2215.96 2209.73,2218.11 2209.9,2220.31 2209.73,2222.51 2209.24,2224.66 2208.43,2226.72 2207.33,2228.63 2205.96,2230.35 2204.34,2231.85 2202.52,2233.1 2200.53,2234.05 2198.42,2234.7 2196.24,2235.03 2194.03,2235.03 2191.85,2234.7 2189.74,2234.05 2187.75,2233.1 2185.93,2231.85 2184.31,2230.35 2182.94,2228.63 2181.83,2226.72 2181.03,2224.66 2180.54,2222.51 2180.37,2220.31 "
         id="polyline1123" />
      <polyline
         fill="none"
         vector-effect="none"
         points="1160.03,1753.83 1159.86,1751.63 1159.37,1749.48 1158.57,1747.43 1157.46,1745.52 1156.09,1743.79 1154.47,1742.29 1152.65,1741.05 1150.66,1740.09 1148.55,1739.44 1146.37,1739.11 1144.16,1739.11 1141.98,1739.44 1139.87,1740.09 1137.89,1741.05 1136.06,1742.29 1134.45,1743.79 1133.07,1745.52 1131.97,1747.43 1131.16,1749.48 1130.67,1751.63 1130.51,1753.83 1130.67,1756.04 1131.16,1758.19 1131.97,1760.24 1133.07,1762.15 1134.45,1763.88 1136.06,1765.38 1137.89,1766.62 1139.87,1767.58 1141.98,1768.23 1144.16,1768.56 1146.37,1768.56 1148.55,1768.23 1150.66,1767.58 1152.65,1766.62 1154.47,1765.38 1156.09,1763.88 1157.46,1762.15 1158.57,1760.24 1159.37,1758.19 1159.86,1756.04 1160.03,1753.83 "
         id="polyline1125" />
      <polyline
         fill="none"
         vector-effect="none"
         points="1043.12,2105.76 1042.95,2103.56 1042.46,2101.41 1041.65,2099.35 1040.55,2097.44 1039.17,2095.72 1037.56,2094.22 1035.73,2092.97 1033.75,2092.02 1031.64,2091.37 1029.46,2091.04 1027.25,2091.04 1025.07,2091.37 1022.96,2092.02 1020.97,2092.97 1019.15,2094.22 1017.53,2095.72 1016.16,2097.44 1015.05,2099.35 1014.25,2101.41 1013.76,2103.56 1013.59,2105.76 1013.76,2107.96 1014.25,2110.11 1015.05,2112.16 1016.16,2114.07 1017.53,2115.8 1019.15,2117.3 1020.97,2118.54 1022.96,2119.5 1025.07,2120.15 1027.25,2120.48 1029.46,2120.48 1031.64,2120.15 1033.75,2119.5 1035.73,2118.54 1037.56,2117.3 1039.17,2115.8 1040.55,2114.07 1041.65,2112.16 1042.46,2110.11 1042.95,2107.96 1043.12,2105.76 "
         id="polyline1127" />
      <polyline
         fill="none"
         vector-effect="none"
         points="1043.12,2220.31 1042.95,2218.11 1042.46,2215.96 1041.65,2213.91 1040.55,2212 1039.17,2210.27 1037.56,2208.77 1035.73,2207.53 1033.75,2206.57 1031.64,2205.92 1029.46,2205.59 1027.25,2205.59 1025.07,2205.92 1022.96,2206.57 1020.97,2207.53 1019.15,2208.77 1017.53,2210.27 1016.16,2212 1015.05,2213.91 1014.25,2215.96 1013.76,2218.11 1013.59,2220.31 1013.76,2222.51 1014.25,2224.66 1015.05,2226.72 1016.16,2228.63 1017.53,2230.35 1019.15,2231.85 1020.97,2233.1 1022.96,2234.05 1025.07,2234.7 1027.25,2235.03 1029.46,2235.03 1031.64,2234.7 1033.75,2234.05 1035.73,2233.1 1037.56,2231.85 1039.17,2230.35 1040.55,2228.63 1041.65,2226.72 1042.46,2224.66 1042.95,2222.51 1043.12,2220.31 "
         id="polyline1129" />
      <polyline
         fill="none"
         vector-effect="none"
         points="1626.51,838.597 1626.34,836.397 1625.85,834.246 1625.04,832.192 1623.94,830.281 1622.57,828.556 1620.95,827.056 1619.13,825.813 1617.14,824.855 1615.03,824.205 1612.85,823.876 1610.64,823.876 1608.46,824.205 1606.35,824.855 1604.36,825.813 1602.54,827.056 1600.92,828.556 1599.55,830.281 1598.44,832.192 1597.64,834.246 1597.15,836.397 1596.98,838.597 1597.15,840.797 1597.64,842.948 1598.44,845.002 1599.55,846.913 1600.92,848.637 1602.54,850.138 1604.36,851.381 1606.35,852.338 1608.46,852.989 1610.64,853.317 1612.85,853.317 1615.03,852.989 1617.14,852.338 1619.13,851.381 1620.95,850.138 1622.57,848.637 1623.94,846.913 1625.04,845.002 1625.85,842.948 1626.34,840.797 1626.51,838.597 "
         id="polyline1131" />
      <polyline
         fill="none"
         vector-effect="none"
         points="1673.74,1901.45 1673.58,1899.25 1673.09,1897.1 1672.28,1895.05 1671.18,1893.14 1669.8,1891.41 1668.19,1889.91 1666.36,1888.67 1664.38,1887.71 1662.27,1887.06 1660.09,1886.73 1657.88,1886.73 1655.7,1887.06 1653.59,1887.71 1651.6,1888.67 1649.78,1889.91 1648.16,1891.41 1646.79,1893.14 1645.68,1895.05 1644.88,1897.1 1644.39,1899.25 1644.22,1901.45 1644.39,1903.65 1644.88,1905.81 1645.68,1907.86 1646.79,1909.77 1648.16,1911.49 1649.78,1913 1651.6,1914.24 1653.59,1915.2 1655.7,1915.85 1657.88,1916.17 1660.09,1916.17 1662.27,1915.85 1664.38,1915.2 1666.36,1914.24 1668.19,1913 1669.8,1911.49 1671.18,1909.77 1672.28,1907.86 1673.09,1905.81 1673.58,1903.65 1673.74,1901.45 "
         id="polyline1133" />
      <polyline
         fill="none"
         vector-effect="none"
         points="1579.27,1901.45 1579.1,1899.25 1578.61,1897.1 1577.81,1895.05 1576.7,1893.14 1575.33,1891.41 1573.71,1889.91 1571.89,1888.67 1569.9,1887.71 1567.79,1887.06 1565.61,1886.73 1563.4,1886.73 1561.22,1887.06 1559.11,1887.71 1557.13,1888.67 1555.3,1889.91 1553.68,1891.41 1552.31,1893.14 1551.21,1895.05 1550.4,1897.1 1549.91,1899.25 1549.74,1901.45 1549.91,1903.65 1550.4,1905.81 1551.21,1907.86 1552.31,1909.77 1553.68,1911.49 1555.3,1913 1557.13,1914.24 1559.11,1915.2 1561.22,1915.85 1563.4,1916.17 1565.61,1916.17 1567.79,1915.85 1569.9,1915.2 1571.89,1914.24 1573.71,1913 1575.33,1911.49 1576.7,1909.77 1577.81,1907.86 1578.61,1905.81 1579.1,1903.65 1579.27,1901.45 "
         id="polyline1135" />
      <polyline
         fill="none"
         vector-effect="none"
         points="1549.74,986.216 1549.58,984.016 1549.09,981.865 1548.28,979.811 1547.18,977.9 1545.8,976.175 1544.19,974.675 1542.36,973.432 1540.38,972.474 1538.27,971.824 1536.09,971.495 1533.88,971.495 1531.7,971.824 1529.59,972.474 1527.6,973.432 1525.78,974.675 1524.16,976.175 1522.79,977.9 1521.68,979.811 1520.88,981.865 1520.39,984.016 1520.22,986.216 1520.39,988.416 1520.88,990.567 1521.68,992.621 1522.79,994.532 1524.16,996.257 1525.78,997.757 1527.6,999 1529.59,999.957 1531.7,1000.61 1533.88,1000.94 1536.09,1000.94 1538.27,1000.61 1540.38,999.957 1542.36,999 1544.19,997.757 1545.8,996.257 1547.18,994.532 1548.28,992.621 1549.09,990.567 1549.58,988.416 1549.74,986.216 "
         id="polyline1137" />
      <polyline
         fill="none"
         vector-effect="none"
         points="1703.27,986.216 1703.1,984.016 1702.61,981.865 1701.81,979.811 1700.7,977.9 1699.33,976.175 1697.71,974.675 1695.89,973.432 1693.9,972.474 1691.79,971.824 1689.61,971.495 1687.4,971.495 1685.22,971.824 1683.11,972.474 1681.13,973.432 1679.3,974.675 1677.68,976.175 1676.31,977.9 1675.21,979.811 1674.4,981.865 1673.91,984.016 1673.74,986.216 1673.91,988.416 1674.4,990.567 1675.21,992.621 1676.31,994.532 1677.68,996.257 1679.3,997.757 1681.13,999 1683.11,999.957 1685.22,1000.61 1687.4,1000.94 1689.61,1000.94 1691.79,1000.61 1693.9,999.957 1695.89,999 1697.71,997.757 1699.33,996.257 1700.7,994.532 1701.81,992.621 1702.61,990.567 1703.1,988.416 1703.27,986.216 "
         id="polyline1139" />
      <polyline
         fill="none"
         vector-effect="none"
         points="2184.51,2019.55 2184.34,2017.14 2183.85,2014.77 2183.04,2012.49 2181.93,2010.35 2180.53,2008.37 2178.88,2006.6 2177.01,2005.08 2174.94,2003.82 2172.72,2002.86 2170.4,2002.21 2168,2001.88 2165.58,2001.88 2163.19,2002.21 2160.86,2002.86 2158.64,2003.82 2156.58,2005.08 2154.7,2006.6 2153.05,2008.37 2151.66,2010.35 2150.54,2012.49 2149.73,2014.77 2149.24,2017.14 2149.08,2019.55 2149.24,2021.96 2149.73,2024.33 2150.54,2026.61 2151.66,2028.75 2153.05,2030.73 2154.7,2032.5 2156.58,2034.02 2158.64,2035.28 2160.86,2036.24 2163.19,2036.89 2165.58,2037.22 2168,2037.22 2170.4,2036.89 2172.72,2036.24 2174.94,2035.28 2177.01,2034.02 2178.88,2032.5 2180.53,2030.73 2181.93,2028.75 2183.04,2026.61 2183.85,2024.33 2184.34,2021.96 2184.51,2019.55 "
         id="polyline1141" />
      <polyline
         fill="none"
         vector-effect="none"
         points="1074.41,2019.55 1074.25,2017.14 1073.75,2014.77 1072.94,2012.49 1071.83,2010.35 1070.44,2008.37 1068.79,2006.6 1066.91,2005.08 1064.85,2003.82 1062.63,2002.86 1060.3,2002.21 1057.91,2001.88 1055.49,2001.88 1053.09,2002.21 1050.76,2002.86 1048.55,2003.82 1046.48,2005.08 1044.61,2006.6 1042.96,2008.37 1041.56,2010.35 1040.45,2012.49 1039.64,2014.77 1039.15,2017.14 1038.98,2019.55 1039.15,2021.96 1039.64,2024.33 1040.45,2026.61 1041.56,2028.75 1042.96,2030.73 1044.61,2032.5 1046.48,2034.02 1048.55,2035.28 1050.76,2036.24 1053.09,2036.89 1055.49,2037.22 1057.91,2037.22 1060.3,2036.89 1062.63,2036.24 1064.85,2035.28 1066.91,2034.02 1068.79,2032.5 1070.44,2030.73 1071.83,2028.75 1072.94,2026.61 1073.75,2024.33 1074.25,2021.96 1074.41,2019.55 "
         id="polyline1143" />
      <polyline
         fill="none"
         vector-effect="none"
         points="1409.8,797.264 1409.64,795.063 1409.15,792.912 1408.34,790.859 1407.24,788.948 1405.86,787.223 1404.24,785.722 1402.42,784.479 1400.43,783.522 1398.32,782.872 1396.14,782.543 1393.94,782.543 1391.75,782.872 1389.65,783.522 1387.66,784.479 1385.84,785.722 1384.22,787.223 1382.84,788.948 1381.74,790.859 1380.93,792.912 1380.44,795.063 1380.28,797.264 1380.44,799.464 1380.93,801.615 1381.74,803.668 1382.84,805.579 1384.22,807.304 1385.84,808.805 1387.66,810.048 1389.65,811.005 1391.75,811.655 1393.94,811.984 1396.14,811.984 1398.32,811.655 1400.43,811.005 1402.42,810.048 1404.24,808.805 1405.86,807.304 1407.24,805.579 1408.34,803.668 1409.15,801.615 1409.64,799.464 1409.8,797.264 "
         id="polyline1145" />
      <polyline
         fill="none"
         vector-effect="none"
         points="1843.21,1230.67 1843.05,1228.47 1842.55,1226.32 1841.75,1224.27 1840.65,1222.36 1839.27,1220.63 1837.65,1219.13 1835.83,1217.89 1833.84,1216.93 1831.73,1216.28 1829.55,1215.95 1827.35,1215.95 1825.16,1216.28 1823.06,1216.93 1821.07,1217.89 1819.25,1219.13 1817.63,1220.63 1816.25,1222.36 1815.15,1224.27 1814.34,1226.32 1813.85,1228.47 1813.69,1230.67 1813.85,1232.87 1814.34,1235.02 1815.15,1237.08 1816.25,1238.99 1817.63,1240.71 1819.25,1242.21 1821.07,1243.46 1823.06,1244.41 1825.16,1245.06 1827.35,1245.39 1829.55,1245.39 1831.73,1245.06 1833.84,1244.41 1835.83,1243.46 1837.65,1242.21 1839.27,1240.71 1840.65,1238.99 1841.75,1237.08 1842.55,1235.02 1843.05,1232.87 1843.21,1230.67 "
         id="polyline1147" />
      <polyline
         fill="none"
         vector-effect="none"
         points="1409.8,1230.67 1409.64,1228.47 1409.15,1226.32 1408.34,1224.27 1407.24,1222.36 1405.86,1220.63 1404.24,1219.13 1402.42,1217.89 1400.43,1216.93 1398.32,1216.28 1396.14,1215.95 1393.94,1215.95 1391.75,1216.28 1389.65,1216.93 1387.66,1217.89 1385.84,1219.13 1384.22,1220.63 1382.84,1222.36 1381.74,1224.27 1380.93,1226.32 1380.44,1228.47 1380.28,1230.67 1380.44,1232.87 1380.93,1235.02 1381.74,1237.08 1382.84,1238.99 1384.22,1240.71 1385.84,1242.21 1387.66,1243.46 1389.65,1244.41 1391.75,1245.06 1393.94,1245.39 1396.14,1245.39 1398.32,1245.06 1400.43,1244.41 1402.42,1243.46 1404.24,1242.21 1405.86,1240.71 1407.24,1238.99 1408.34,1237.08 1409.15,1235.02 1409.64,1232.87 1409.8,1230.67 "
         id="polyline1149" />
      <polyline
         fill="none"
         vector-effect="none"
         points="1843.21,797.264 1843.05,795.063 1842.55,792.912 1841.75,790.859 1840.65,788.948 1839.27,787.223 1837.65,785.722 1835.83,784.479 1833.84,783.522 1831.73,782.872 1829.55,782.543 1827.35,782.543 1825.16,782.872 1823.06,783.522 1821.07,784.479 1819.25,785.722 1817.63,787.223 1816.25,788.948 1815.15,790.859 1814.34,792.912 1813.85,795.063 1813.69,797.264 1813.85,799.464 1814.34,801.615 1815.15,803.668 1816.25,805.579 1817.63,807.304 1819.25,808.805 1821.07,810.048 1823.06,811.005 1825.16,811.655 1827.35,811.984 1829.55,811.984 1831.73,811.655 1833.84,811.005 1835.83,810.048 1837.65,808.805 1839.27,807.304 1840.65,805.579 1841.75,803.668 1842.55,801.615 1843.05,799.464 1843.21,797.264 "
         id="polyline1151" />
      <polyline
         fill="none"
         vector-effect="none"
         points="1800.7,1576.69 1800.53,1572.99 1800.03,1569.31 1799.21,1565.7 1798.06,1562.17 1796.6,1558.76 1794.85,1555.49 1792.8,1552.4 1790.49,1549.5 1787.93,1546.82 1785.13,1544.38 1782.13,1542.2 1778.95,1540.29 1775.61,1538.68 1772.14,1537.38 1768.56,1536.4 1764.91,1535.73 1761.22,1535.4 1757.51,1535.4 1753.81,1535.73 1750.17,1536.4 1746.59,1537.38 1743.12,1538.68 1739.78,1540.29 1736.59,1542.2 1733.59,1544.38 1730.8,1546.82 1728.24,1549.5 1725.92,1552.4 1723.88,1555.49 1722.12,1558.76 1720.67,1562.17 1719.52,1565.7 1718.69,1569.31 1718.2,1572.99 1718.03,1576.69 1718.2,1580.4 1718.69,1584.07 1719.52,1587.69 1720.67,1591.22 1722.12,1594.63 1723.88,1597.89 1725.92,1600.99 1728.24,1603.89 1730.8,1606.57 1733.59,1609.01 1736.59,1611.19 1739.78,1613.09 1743.12,1614.7 1746.59,1616 1750.17,1616.99 1753.81,1617.65 1757.51,1617.98 1761.22,1617.98 1764.91,1617.65 1768.56,1616.99 1772.14,1616 1775.61,1614.7 1778.95,1613.09 1782.13,1611.19 1785.13,1609.01 1787.93,1606.57 1790.49,1603.89 1792.8,1600.99 1794.85,1597.89 1796.6,1594.63 1798.06,1591.22 1799.21,1587.69 1800.03,1584.07 1800.53,1580.4 1800.7,1576.69 "
         id="polyline1153" />
      <polyline
         fill="none"
         vector-effect="none"
         points="2313.23,1847.32 2300.33,1780.96 "
         id="polyline1155" />
      <polyline
         fill="none"
         vector-effect="none"
         points="1459.16,750.025 1764.32,750.025 "
         id="polyline1157" />
      <polyline
         fill="none"
         vector-effect="none"
         points="2313.23,2255.74 2313.23,1847.32 "
         id="polyline1159" />
      <polyline
         fill="none"
         vector-effect="none"
         points="2300.33,1780.96 1928.57,860.809 "
         id="polyline1161" />
      <polyline
         fill="none"
         vector-effect="none"
         points="1294.92,860.809 923.157,1780.96 "
         id="polyline1163" />
      <polyline
         fill="none"
         vector-effect="none"
         points="923.157,1780.96 910.258,1847.32 "
         id="polyline1165" />
      <polyline
         fill="none"
         vector-effect="none"
         points="1616.85,1573.73 1755.26,1493.6 "
         id="polyline1167" />
      <polyline
         fill="none"
         vector-effect="none"
         points="1606.63,1579.65 1468.23,1659.78 "
         id="polyline1169" />
      <polyline
         fill="none"
         vector-effect="none"
         points="1836.13,1517.64 1836.13,1446.79 "
         id="polyline1171" />
      <polyline
         fill="none"
         vector-effect="none"
         points="1616.85,1579.65 1755.26,1659.78 "
         id="polyline1173" />
      <polyline
         fill="none"
         vector-effect="none"
         points="1505.46,1618.03 1422.79,1618.03 "
         id="polyline1175" />
      <polyline
         fill="none"
         vector-effect="none"
         points="1422.79,1618.03 1422.79,1535.36 "
         id="polyline1177" />
      <polyline
         fill="none"
         vector-effect="none"
         points="1505.46,1618.03 1505.46,1535.36 "
         id="polyline1179" />
      <polyline
         fill="none"
         vector-effect="none"
         points="1387.36,1706.6 1387.36,1623.93 "
         id="polyline1181" />
      <polyline
         fill="none"
         vector-effect="none"
         points="1505.46,1535.36 1422.79,1535.36 "
         id="polyline1183" />
      <polyline
         fill="none"
         vector-effect="none"
         points="1425.2,1684.69 1387.36,1706.6 "
         id="polyline1185" />
      <polyline
         fill="none"
         vector-effect="none"
         points="1836.13,1517.64 1897.61,1517.64 "
         id="polyline1187" />
      <polyline
         fill="none"
         vector-effect="none"
         points="1468.23,1493.6 1606.63,1573.73 "
         id="polyline1189" />
      <polyline
         fill="none"
         vector-effect="none"
         points="1836.13,1635.74 1897.61,1635.74 "
         id="polyline1191" />
      <polyline
         fill="none"
         vector-effect="none"
         points="1387.36,1446.79 1425.2,1468.69 "
         id="polyline1193" />
      <polyline
         fill="none"
         vector-effect="none"
         points="1836.13,1706.6 1836.13,1635.74 "
         id="polyline1195" />
      <polyline
         fill="none"
         vector-effect="none"
         points="1798.29,1684.69 1836.13,1706.6 "
         id="polyline1197" />
      <polyline
         fill="none"
         vector-effect="none"
         points="910.258,2255.74 910.258,1847.32 "
         id="polyline1199" />
      <polyline
         fill="none"
         vector-effect="none"
         points="1387.36,1529.45 1387.36,1446.79 "
         id="polyline1201" />
      <polyline
         fill="none"
         vector-effect="none"
         points="1798.29,1468.69 1836.13,1446.79 "
         id="polyline1203" />
      <polyline
         fill="none"
         vector-effect="none"
         points="910.258,2255.74 2313.23,2255.74 "
         id="polyline1205" />
      <polyline
         fill="none"
         vector-effect="none"
         points="1459.16,750.025 1445.92,750.691 1439.32,751.124 1432.74,751.676 1426.19,752.389 1419.67,753.301 1413.19,754.453 1406.77,755.884 1400.4,757.626 1394.1,759.673 1387.88,762.013 1381.76,764.633 1375.75,767.52 1369.85,770.662 1364.08,774.045 1358.46,777.658 1353,781.489 1347.7,785.534 1342.59,789.787 1337.68,794.247 1332.97,798.909 1328.49,803.77 1324.25,808.826 1320.25,814.074 1316.51,819.506 1313,825.102 1309.69,830.839 1306.54,836.692 1303.52,842.64 1300.6,848.657 1294.92,860.809 "
         id="polyline1207" />
      <polyline
         fill="none"
         vector-effect="none"
         points="1928.57,860.809 1922.99,848.782 1920.12,842.823 1917.14,836.927 1914.02,831.118 1910.74,825.417 1907.24,819.845 1903.51,814.423 1899.51,809.171 1895.25,804.098 1890.75,799.21 1886.03,794.514 1881.1,790.017 1875.98,785.727 1870.68,781.648 1865.22,777.79 1859.62,774.158 1853.89,770.764 1848.03,767.618 1842.05,764.732 1835.97,762.116 1829.78,759.782 1823.51,757.741 1817.14,756.004 1810.71,754.572 1804.2,753.413 1797.64,752.49 1791.04,751.762 1784.39,751.191 1777.72,750.737 1764.32,750.025 "
         id="polyline1209" />
      <polyline
         fill="none"
         vector-effect="none"
         points="1468.23,1659.78 1471.41,1662.31 1474.7,1664.8 1478.09,1667.24 1481.6,1669.64 1485.22,1671.99 1488.94,1674.3 1492.76,1676.54 1496.69,1678.73 1500.72,1680.86 1504.85,1682.93 1509.08,1684.93 1513.39,1686.85 1517.78,1688.7 1522.25,1690.46 1526.79,1692.15 1531.4,1693.75 1536.07,1695.26 1540.81,1696.69 1545.6,1698.02 1550.46,1699.27 1555.36,1700.42 1560.31,1701.47 1565.31,1702.43 1570.35,1703.3 1575.43,1704.07 1580.54,1704.73 1585.69,1705.3 1590.86,1705.76 1596.05,1706.13 1601.27,1706.39 1606.5,1706.54 1611.74,1706.6 1616.99,1706.54 1622.22,1706.39 1627.43,1706.13 1632.63,1705.76 1637.8,1705.3 1642.94,1704.73 1648.06,1704.07 1653.14,1703.3 1658.18,1702.43 1663.18,1701.47 1668.13,1700.42 1673.03,1699.27 1677.89,1698.02 1682.68,1696.69 1687.42,1695.26 1692.09,1693.75 1696.7,1692.15 1701.24,1690.46 1705.71,1688.7 1710.1,1686.85 1714.41,1684.93 1718.64,1682.93 1722.77,1680.86 1726.8,1678.73 1730.73,1676.54 1734.55,1674.3 1738.27,1671.99 1741.89,1669.64 1745.39,1667.24 1748.79,1664.8 1752.08,1662.31 1755.26,1659.78 "
         id="polyline1211" />
      <polyline
         fill="none"
         vector-effect="none"
         points="1755.26,1493.6 1752.08,1491.08 1748.79,1488.59 1745.39,1486.14 1741.89,1483.74 1738.27,1481.39 1734.55,1479.09 1730.73,1476.84 1726.8,1474.65 1722.77,1472.52 1718.64,1470.46 1714.41,1468.46 1710.1,1466.53 1705.71,1464.69 1701.24,1462.92 1696.7,1461.24 1692.09,1459.64 1687.42,1458.12 1682.68,1456.7 1677.89,1455.36 1673.03,1454.12 1668.13,1452.97 1663.18,1451.91 1658.18,1450.95 1653.14,1450.08 1648.06,1449.32 1642.94,1448.65 1637.8,1448.09 1632.63,1447.62 1627.43,1447.26 1622.22,1447 1616.99,1446.84 1611.74,1446.79 1606.5,1446.84 1601.27,1447 1596.05,1447.26 1590.86,1447.62 1585.69,1448.09 1580.54,1448.65 1575.43,1449.32 1570.35,1450.08 1565.31,1450.95 1560.31,1451.91 1555.36,1452.97 1550.46,1454.12 1545.6,1455.36 1540.81,1456.7 1536.07,1458.12 1531.4,1459.64 1526.79,1461.24 1522.25,1462.92 1517.78,1464.69 1513.39,1466.53 1509.08,1468.46 1504.85,1470.46 1500.72,1472.52 1496.69,1474.65 1492.76,1476.84 1488.94,1479.09 1485.22,1481.39 1481.6,1483.74 1478.09,1486.14 1474.7,1488.59 1471.41,1491.08 1468.23,1493.6 "
         id="polyline1213" />
      <polyline
         fill="none"
         vector-effect="none"
         points="1425.2,1684.69 1429.25,1688.51 1433.46,1692.26 1437.81,1695.93 1442.31,1699.52 1446.96,1703.03 1451.74,1706.46 1456.67,1709.79 1461.74,1713.03 1466.94,1716.17 1472.27,1719.21 1477.73,1722.15 1483.32,1724.98 1489.04,1727.7 1494.86,1730.3 1500.78,1732.78 1506.79,1735.12 1512.89,1737.34 1519.07,1739.42 1525.33,1741.37 1531.67,1743.19 1538.07,1744.86 1544.54,1746.4 1551.06,1747.8 1557.65,1749.05 1564.28,1750.17 1570.96,1751.13 1577.68,1751.95 1584.44,1752.63 1591.23,1753.16 1598.05,1753.53 1604.89,1753.76 1611.74,1753.83 1618.6,1753.76 1625.44,1753.53 1632.26,1753.16 1639.05,1752.63 1645.8,1751.95 1652.53,1751.13 1659.21,1750.17 1665.84,1749.05 1672.42,1747.8 1678.95,1746.4 1685.42,1744.86 1691.82,1743.19 1698.16,1741.37 1704.42,1739.42 1710.6,1737.34 1716.7,1735.12 1722.71,1732.78 1728.63,1730.3 1734.45,1727.7 1740.17,1724.98 1745.76,1722.15 1751.22,1719.21 1756.55,1716.17 1761.75,1713.03 1766.82,1709.79 1771.74,1706.46 1776.53,1703.03 1781.18,1699.52 1785.68,1695.93 1790.03,1692.26 1794.24,1688.51 1798.29,1684.69 "
         id="polyline1215" />
      <polyline
         fill="none"
         vector-effect="none"
         points="1798.29,1468.69 1794.24,1464.87 1790.03,1461.12 1785.68,1457.45 1781.18,1453.86 1776.53,1450.35 1771.74,1446.93 1766.82,1443.59 1761.75,1440.35 1756.55,1437.21 1751.22,1434.17 1745.76,1431.23 1740.17,1428.4 1734.45,1425.68 1728.63,1423.08 1722.71,1420.61 1716.7,1418.26 1710.6,1416.05 1704.42,1413.96 1698.16,1412.01 1691.82,1410.2 1685.42,1408.52 1678.95,1406.98 1672.42,1405.59 1665.84,1404.33 1659.21,1403.22 1652.53,1402.25 1645.8,1401.43 1639.05,1400.76 1632.26,1400.23 1625.44,1399.85 1618.6,1399.63 1611.74,1399.55 1604.89,1399.63 1598.05,1399.85 1591.23,1400.23 1584.44,1400.76 1577.68,1401.43 1570.96,1402.25 1564.28,1403.22 1557.65,1404.33 1551.06,1405.59 1544.54,1406.98 1538.07,1408.52 1531.67,1410.2 1525.33,1412.01 1519.07,1413.96 1512.89,1416.05 1506.79,1418.26 1500.78,1420.61 1494.86,1423.08 1489.04,1425.68 1483.32,1428.4 1477.73,1431.23 1472.27,1434.17 1466.94,1437.21 1461.74,1440.35 1456.67,1443.59 1451.74,1446.93 1446.96,1450.35 1442.31,1453.86 1437.81,1457.45 1433.46,1461.12 1429.25,1464.87 1425.2,1468.69 "
         id="polyline1217" />
      <polyline
         fill="none"
         vector-effect="none"
         points="1616.85,1579.65 1617.36,1578.52 1617.62,1577.31 1617.62,1576.07 1617.36,1574.86 1616.85,1573.73 "
         id="polyline1219" />
      <polyline
         fill="none"
         vector-effect="none"
         points="1606.63,1573.73 1606.13,1574.86 1605.87,1576.07 1605.87,1577.31 1606.13,1578.52 1606.63,1579.65 "
         id="polyline1221" />
      <polyline
         fill="none"
         vector-effect="none"
         points="1323.71,1628.56 1327.48,1630.44 1331.38,1632.05 1335.38,1633.37 1339.46,1634.41 1343.61,1635.15 1347.8,1635.59 1352.01,1635.74 1356.22,1635.58 1360.41,1635.13 1364.55,1634.38 1368.63,1633.33 1372.63,1632 1376.52,1630.38 1380.28,1628.49 1383.9,1626.34 1387.36,1623.93 "
         id="polyline1223" />
      <polyline
         fill="none"
         vector-effect="none"
         points="1387.36,1529.45 1383.9,1527.05 1380.28,1524.89 1376.52,1523.01 1372.63,1521.39 1368.63,1520.05 1364.55,1519.01 1360.41,1518.26 1356.22,1517.8 1352.01,1517.64 1347.8,1517.79 1343.61,1518.23 1339.46,1518.98 1335.38,1520.01 1331.38,1521.34 1327.48,1522.95 1323.71,1524.83 "
         id="polyline1225" />
      <polyline
         fill="none"
         vector-effect="none"
         points="1897.61,1517.64 1894.95,1509.96 1891.97,1502.35 1888.68,1494.82 1885.07,1487.39 1881.14,1480.06 1876.91,1472.84 1872.38,1465.73 1867.54,1458.76 1862.42,1451.92 1857.01,1445.22 1851.33,1438.67 1845.36,1432.28 1839.14,1426.05 1832.65,1419.99 1825.91,1414.12 1818.93,1408.43 1811.71,1402.93 1804.26,1397.62 1796.6,1392.53 1788.72,1387.64 1780.64,1382.97 1772.37,1378.52 1763.92,1374.29 1755.29,1370.3 1746.5,1366.54 1737.55,1363.02 1728.46,1359.74 1719.24,1356.71 1709.9,1353.94 1700.44,1351.41 1690.88,1349.15 1681.24,1347.14 1671.51,1345.39 1661.71,1343.91 1651.86,1342.69 1641.97,1341.74 1632.03,1341.06 1622.08,1340.65 1612.11,1340.5 1602.14,1340.63 1592.19,1341.02 1582.25,1341.68 1572.35,1342.61 1562.5,1343.81 1552.7,1345.27 1542.97,1347 1533.31,1348.99 1523.75,1351.24 1514.28,1353.74 1504.93,1356.5 1495.7,1359.51 1486.6,1362.77 1477.65,1366.27 1468.84,1370.01 1460.2,1373.99 1451.73,1378.2 1443.45,1382.63 1435.36,1387.29 1427.46,1392.16 1419.78,1397.24 1412.32,1402.53 1405.08,1408.01 1398.08,1413.69 1391.33,1419.56 1384.82,1425.6 1378.57,1431.81 1372.59,1438.19 1366.88,1444.73 1361.45,1451.42 1356.31,1458.25 1351.46,1465.22 1346.9,1472.31 1342.65,1479.52 1338.7,1486.84 1335.07,1494.27 1331.75,1501.79 1328.74,1509.39 1326.07,1517.08 1323.71,1524.83 "
         id="polyline1227" />
      <polyline
         fill="none"
         vector-effect="none"
         points="1323.71,1628.56 1326.07,1636.31 1328.74,1643.99 1331.75,1651.59 1335.07,1659.11 1338.7,1666.54 1342.65,1673.86 1346.9,1681.07 1351.46,1688.17 1356.31,1695.13 1361.45,1701.97 1366.88,1708.65 1372.59,1715.19 1378.57,1721.57 1384.82,1727.79 1391.33,1733.83 1398.08,1739.69 1405.08,1745.37 1412.32,1750.85 1419.78,1756.14 1427.46,1761.22 1435.36,1766.1 1443.45,1770.75 1451.73,1775.19 1460.2,1779.39 1468.84,1783.37 1477.65,1787.11 1486.6,1790.62 1495.7,1793.87 1504.93,1796.88 1514.28,1799.64 1523.75,1802.15 1533.31,1804.4 1542.97,1806.38 1552.7,1808.11 1562.5,1809.57 1572.35,1810.77 1582.25,1811.7 1592.19,1812.36 1602.14,1812.76 1612.11,1812.88 1622.08,1812.74 1632.03,1812.32 1641.97,1811.64 1651.86,1810.69 1661.71,1809.47 1671.51,1807.99 1681.24,1806.25 1690.88,1804.24 1700.44,1801.97 1709.9,1799.45 1719.24,1796.67 1728.46,1793.64 1737.55,1790.37 1746.5,1786.85 1755.29,1783.09 1763.92,1779.09 1772.37,1774.87 1780.64,1770.42 1788.72,1765.74 1796.6,1760.86 1804.26,1755.76 1811.71,1750.46 1818.93,1744.96 1825.91,1739.27 1832.65,1733.39 1839.14,1727.33 1845.36,1721.11 1851.33,1714.72 1857.01,1708.17 1862.42,1701.47 1867.54,1694.63 1872.38,1687.65 1876.91,1680.55 1881.14,1673.33 1885.07,1666 1888.68,1658.56 1891.97,1651.04 1894.95,1643.43 1897.61,1635.74 "
         id="polyline1229" />
    </g>
  </g>
</svg>
